<?xml version="1.0" encoding="utf-8"?>
<!-- Generator: Adobe Illustrator 24.1.1, SVG Export Plug-In . SVG Version: 6.00 Build 0)  -->
<svg version="1.1" id="Layer_1" xmlns="http://www.w3.org/2000/svg" xmlns:xlink="http://www.w3.org/1999/xlink" x="0px" y="0px"
	 viewBox="0 0 50 43.9" style="enable-background:new 0 0 50 43.9;" xml:space="preserve">
<style type="text/css">
	.st0{fill:#363636;}
	.st1{fill:#FFFFFF;}
	.st2{fill:none;stroke:#363636;stroke-width:2.355;stroke-miterlimit:10;}
</style>
<path class="st0" d="M23.5,18.2c2.5,0,5,0.3,7.3,1c2.4,0.7,4.6,1.7,6.5,2.9c0.9,0.6,2,1.4,2.9,2.2c1,0.9,1.3,1.4,1.4,1.6
	c-0.1,0.3-0.7,1.3-3,2.9c-1.4,0.9-2.9,1.7-4.4,2.4c-0.7,0.3-1.3,0.5-2,0.7c-2.9,0.9-5.9,1.4-8.9,1.4c-3.1,0-6-0.5-8.7-1.4
	c-2-0.6-3.8-1.6-5.5-2.7c-0.3-0.2-0.5-0.3-0.7-0.5C7.3,28,6.5,27.3,6,26.7c-0.5-0.6-0.6-0.9-0.6-0.9c0,0,0-0.1,0.2-0.3
	c0.8-1.2,1.9-2.2,3.1-3.2c1.2-0.9,2.7-1.7,4.3-2.3C16.1,18.8,19.8,18.2,23.5,18.2L23.5,18.2 M23.5,14.8L23.5,14.8
	c-7.7,0-16.4,2.5-20.7,8.8c-2.2,3.2,0.8,5.9,3.7,8c0.2,0.2,0.5,0.3,0.7,0.5c2,1.3,4.1,2.4,6.4,3.1c3.1,1,6.5,1.6,9.8,1.6
	c3.4,0,6.7-0.5,9.9-1.6c0.8-0.3,1.5-0.5,2.3-0.8c1.7-0.8,3.4-1.7,5-2.7c2.6-1.8,5-4.1,4.5-6.4c-0.5-2.2-3.9-4.6-5.8-5.9
	C34.7,16.3,29.1,14.8,23.5,14.8L23.5,14.8z"/>
<circle class="st1" cx="23.1" cy="23.6" r="1.8"/>
<path class="st0" d="M45.7,16.5L40.9,20c-0.3,0.2-0.7,0.1-0.5-0.2l4.1-3.9h0C45.4,15.7,45.8,15.9,45.7,16.5L45.7,16.5z"/>
<path class="st0" d="M42.4,13l-4.7,4c-0.3,0.2-0.8,0-0.6-0.2l3.8-4.4h0C41.8,12.1,42.4,12.4,42.4,13L42.4,13z"/>
<path class="st0" d="M37.4,10.5l-4.3,4.5c-0.3,0.3-0.9,0.1-0.8-0.2l3.2-4.9h0C36.5,9.7,37.2,9.9,37.4,10.5L37.4,10.5z"/>
<path class="st0" d="M31.6,8.3l-3.4,5.6c-0.2,0.3-0.9,0.2-0.7-0.1l2.3-5.9h0C30.7,7.5,31.4,7.6,31.6,8.3L31.6,8.3z"/>
<path class="st0" d="M25.2,6.5l-1.9,6.5c-0.1,0.4-0.8,0.4-0.8,0l0.7-6.7l0,0C24,5.7,24.8,5.7,25.2,6.5L25.2,6.5z"/>
<circle class="st2" cx="23.6" cy="25.7" r="7.8"/>
</svg>
